<?xml version="1.0" encoding="UTF-8"?>
<!DOCTYPE svg PUBLIC "-//W3C//DTD SVG 1.1//EN" "http://www.w3.org/Graphics/SVG/1.1/DTD/svg11.dtd">
<!-- Creator: CorelDRAW -->
<svg xmlns="http://www.w3.org/2000/svg" xml:space="preserve" width="3.24377in" height="2.21426in" style="shape-rendering:geometricPrecision; text-rendering:geometricPrecision; image-rendering:optimizeQuality; fill-rule:evenodd; clip-rule:evenodd"
viewBox="0 0 1.68826 1.15244"
 xmlns:xlink="http://www.w3.org/1999/xlink">
 <defs>
  <style type="text/css">
   <![CDATA[
    .fil1 {fill:#1F1A17;fill-rule:nonzero}
    .fil0 {fill:white;fill-rule:nonzero}
    .fil2 {fill:#CE1126;fill-rule:nonzero}
   ]]>
  </style>
 </defs>
 <g id="Layer_x0020_1">
  <metadata id="CorelCorpID_0Corel-Layer"/>
  <g id="_82913776">
   <g>
    <g>
     <path id="_82293088" class="fil0" d="M0.793233 0.348578l0.00771677 0 0 -0.12247c0,-0.0238142 0.0193616,-0.0431737 0.0431532,-0.0431737 0.0238265,0 0.0431881,0.0193595 0.0431881,0.0431737l0 0.12247c0,0 0.107121,0 0.120573,0 0,0.0136488 0,0.134003 0,0.134003 0,0 0.406087,0 0.413978,0 0.0226278,0.033496 0.0509807,0.061853 0.0844582,0.0844562 0,0.00760612 0,0.185995 0,0.193604 -0.0334776,0.0225807 -0.0618755,0.0510053 -0.0845013,0.0845197 -0.00793602,0 -0.534508,0 -0.534508,0l0 0.0830874c0,0.0237958 -0.0193616,0.0431553 -0.0431881,0.0431553 -0.0237917,0 -0.0431532,-0.0193595 -0.0431532,-0.0431553l0 -0.0830874c0,0 -0.526593,0 -0.534553,0 -0.0226032,-0.0335145 -0.0509807,-0.061896 -0.0844541,-0.0844746 0,-0.00763071 0,-0.186086 0,-0.193671 0.0334509,-0.0225807 0.0618059,-0.0509376 0.0844091,-0.0844336 0.00789504,0 0.414048,0 0.414048,0 0,0 0,-0.120354 0,-0.134003 0.0134726,0 0.112834,0 0.112834,0z"/>
    </g>
    <path id="_82983272" class="fil1" d="M0.626947 0.166482c-0.0105629,0 -0.145711,0 -0.145711,0 0,0 0,0.120487 0,0.134158 -0.0147737,0 -0.35515,0 -0.35515,0l0 0.00771677c0,0.0652708 -0.0530748,0.118393 -0.118415,0.118393l-0.00767169 0 0 0.474175 0.00767169 0c0.0652954,0 0.118415,0.0531014 0.118415,0.118393l0 0.00767374c0,0 0.507102,0 0.516321,0 0.0378154,0.0763378 0.116358,0.125446 0.201695,0.125446 0.0853926,0 0.163937,-0.0491078 0.20173,-0.125446 0.00926176,0 0.516253,0 0.516253,0l0 -0.00767374c0,-0.0652913 0.0531424,-0.118393 0.118413,-0.118393l0.00767169 0 8.81097e-005 -0.00769218 0 -0.466483 -0.0077598 0c-0.0652708,0 -0.118413,-0.0531219 -0.118413,-0.118393l0 -0.00771677c0,0 -0.340243,0 -0.355018,0 0,-0.0136713 0,-0.134158 0,-0.134158 0,0 -0.135214,0 -0.145754,0 -0.0264165,-0.0983017 -0.11475,-0.166482 -0.217211,-0.166482 -0.102404,0 -0.190716,0.0681805 -0.217155,0.166482zm0.00580089 0.0153926l0 0 0.00606317 0 0.0014118 -0.00590949c0.0227343,-0.094554 0.106572,-0.160573 0.20388,-0.160573 0.0973427,0 0.181223,0.0660187 0.203937,0.160573l0.0014118 0.00590949c0,0 0.128642,0 0.142227,0 0,0.0136713 0,0.134156 0,0.134156 0,0 0.341388,0 0.355414,0 0.00387887,0.0676518 0.0581237,0.121854 0.125732,0.12571 0,0.0139623 0,0.430235 0,0.444192 -0.0676088,0.00386248 -0.121854,0.0580602 -0.125732,0.125687 -0.014159,0 -0.510831,0 -0.510831,0l-0.0020716 0.00443622c-0.0343976,0.0734937 -0.108971,0.120993 -0.190087,0.120993 -0.0810588,0 -0.155634,-0.0474993 -0.19001,-0.120993l-0.00209619 -0.00443622c0,0 -0.496693,0 -0.510893,0 -0.00388297,-0.0676272 -0.0580827,-0.121825 -0.125712,-0.125687 0,-0.0139562 0,-0.430229 0,-0.444192 0.0676293,-0.00387887 0.121829,-0.0580807 0.125712,-0.12571 0.0140668,0 0.355525,0 0.355525,0 0,0 0,-0.120485 0,-0.134156 0.0135607,0 0.136119,0 0.136119,0z"/>
    <g>
     <path id="_82024720" class="fil1" d="M0.785539 0.226108c0,0 0,0.0936278 0,0.107082 -0.0134746,0 -0.120532,0 -0.120532,0 0,0 0,0.120307 0,0.133978 -0.0148393,0 -0.406858,0 -0.406858,0l-0.00224782 0.00348341c-0.0225807,0.0344427 -0.0514909,0.0633304 -0.0858905,0.0858659l-0.00348341 0.00229495 0 0.210055 0.00348341 0.00227036c0.0344447,0.0225561 0.0633304,0.0514663 0.0859131,0.0859069l0.00227036 0.00352644c0,0 0.512393,0 0.527345,0 0,0.0123968 0,0.0676764 0,0.0676764 0,0.0323035 0.0263059,0.0585683 0.0585642,0.0585683 0.0322953,0 0.0586196,-0.0262649 0.0586196,-0.0585683 0,0 0,-0.0552796 0,-0.0676764 0.0149541,0 0.527279,0 0.527279,0l0.00224987 -0.00352644c0.0225827,-0.0344406 0.0515093,-0.0633508 0.0859991,-0.0859295l0.00348341 -0.00231339 0 -0.209969 -0.00348341 -0.00227036c-0.0344447,-0.0225581 -0.0633304,-0.0514683 -0.085911,-0.085911l-0.0022929 -0.00348341c0,0 -0.391973,0 -0.406792,0 0,-0.0136713 0,-0.133978 0,-0.133978 0,0 -0.107033,0 -0.120532,0 0,-0.0134541 0,-0.107082 0,-0.107082 0,-0.0322809 -0.0263243,-0.0585663 -0.0586196,-0.0585663 -0.0322584,0 -0.0585642,0.0262854 -0.0585642,0.0585663zm0.00769423 0.12247l0 0 0.00771677 0 0 -0.12247c0,-0.0238142 0.0193616,-0.0431737 0.0431532,-0.0431737 0.0238265,0 0.0431881,0.0193595 0.0431881,0.0431737l0 0.12247c0,0 0.107121,0 0.120573,0 0,0.0136488 0,0.134003 0,0.134003 0,0 0.406087,0 0.413978,0 0.0226278,0.033496 0.0509807,0.061853 0.0844582,0.0844562 0,0.00760612 0,0.185995 0,0.193604 -0.0334776,0.0225807 -0.0618755,0.0510053 -0.0845013,0.0845197 -0.00793602,0 -0.534508,0 -0.534508,0l0 0.0830874c0,0.0237958 -0.0193616,0.0431553 -0.0431881,0.0431553 -0.0237917,0 -0.0431532,-0.0193595 -0.0431532,-0.0431553l0 -0.0830874c0,0 -0.526593,0 -0.534553,0 -0.0226032,-0.0335145 -0.0509807,-0.061896 -0.0844541,-0.0844746 0,-0.00763071 0,-0.186086 0,-0.193671 0.0334509,-0.0225807 0.0618059,-0.0509376 0.0844091,-0.0844336 0.00789504,0 0.414048,0 0.414048,0 0,0 0,-0.120354 0,-0.134003 0.0134726,0 0.112834,0 0.112834,0z"/>
    </g>
    <g>
     <path id="_83047256" class="fil0" d="M0.665007 0.467168c0,-0.0136713 0,-0.133978 0,-0.133978 0,0 0.00224987,0 0.00613079,0l-0.174508 -0.149991c0,0.0187223 0,0.132832 0,0.132832 0,0 -0.0247424,0 -0.0612137,0l0.175699 0.151137c0.0302319,0 0.0507184,0 0.0538924,0z"/>
     <path id="_92704752" class="fil0" d="M1.06842 0.860571l0.175611 0.151049c0.075676,0 0.157177,0 0.216582,0l-0.175787 -0.151049c-0.0670371,0 -0.146994,0 -0.216406,0z"/>
     <path id="_82935000" class="fil0" d="M1.67283 0.885932l0 -0.070584 -0.151092 -0.129771 0 0.0832247 -0.00348341 0.00231339c-0.0210807,0.0138025 -0.0400878,0.0299901 -0.0568041,0.0483763l0.123704 0.106355c0.0225397,-0.0230438 0.0533658,-0.0379732 0.0876753,-0.0399137z"/>
     <path id="_83304528" class="fil0" d="M0.141105 1.01162c0.000241789,0 0.000659798,0 0.00116797,0l-0.00125607 -0.00107986c2.25397e-005,0.000352439 8.81097e-005,0.000727417 8.81097e-005,0.00107986z"/>
     <path id="_83045096" class="fil0" d="M1.67283 0.441741c-0.0676088,-0.00385633 -0.121854,-0.0580581 -0.125732,-0.12571 -0.00820444,0 -0.128161,0 -0.226464,0l0.352197 0.303749 0 -0.178039z"/>
     <path id="_83307840" class="fil0" d="M0.902722 0.928248c0,0.0323035 -0.0263243,0.0585683 -0.0586196,0.0585683 -0.0322584,0 -0.0585642,-0.0262649 -0.0585642,-0.0585683 0,0 0,-0.0552796 0,-0.0676764 -0.00527224,0 -0.0723934,0 -0.157134,0l0.300429 0.258438c0.0437475,-0.0194272 0.0805281,-0.0535604 0.102711,-0.0975538l-0.128822 -0.110912c0,0.0101388 0,0.0177039 0,0.0177039z"/>
     <path id="_82914208" class="fil0" d="M0.258194 0.860571l-0.00227036 -0.00352644c-0.0225827,-0.0344406 -0.0514683,-0.0633508 -0.0859131,-0.0859069l-0.00348341 -0.00227036 0 -0.113719 -0.151135 -0.130187 0 0.185491 0.350121 0.301167c0.0774197,0 0.1587,0 0.214797,0l-0.175348 -0.151049c-0.0830874,0 -0.146768,0 -0.146768,0z"/>
     <path id="_82913928" class="fil0" d="M0.255901 0.470651l0.00224782 -0.00348341c0,0 0.0578389,0 0.129902,0l-0.175459 -0.151137c-0.0392068,0 -0.0676293,0 -0.0714877,0 -0.00200808,0.0351947 -0.0176629,0.0667277 -0.0417435,0.0894395l0.123882 0.106547c0.0119932,-0.0127226 0.0229106,-0.0265026 0.0326579,-0.0413665z"/>
     <path id="_82382832" class="fil2" d="M1.32063 0.316031c-0.0699406,0 -0.12895,0 -0.12895,0l0 -0.134156 -0.142227 0 -0.0014118 -0.00590949c-0.0227139,-0.094554 -0.106594,-0.160573 -0.203937,-0.160573 -0.0293262,0 -0.0574414,0.00604063 -0.0830423,0.0170216l0.506295 0.434754c0.0864848,0 0.162691,0 0.162691,0l0.0022929 0.00348341c0.0225807,0.0344427 0.0514663,0.0633529 0.085911,0.085911l0.00348341 0.00227036 0 0.126745 0.151092 0.129771 0 -0.195569 -0.352197 -0.303749z"/>
     <path id="_83309944" class="fil2" d="M0.611114 0.467168l-0.175699 -0.151137c-0.061855,0 -0.157399,0 -0.222823,0l0.175459 0.151137c0.0753911,0 0.166372,0 0.223063,0z"/>
     <path id="_83312360" class="fil2" d="M0.902722 0.860571c0,0.00780693 0,0.0326395 0,0.0499725l0.128822 0.110912c0.000883146,-0.00178473 0.00180727,-0.00359201 0.00264534,-0.00539928l0.0020716 -0.00443622c0,0 0.0977321,0 0.207765,0l-0.175611 -0.151049c-0.0887346,0 -0.160222,0 -0.165693,0z"/>
     <path id="_83313840" class="fil2" d="M0.404962 0.860571l0.175348 0.151049c0.0433745,0 0.0716864,0 0.0716864,0l0.00209619 0.00443622c0.0343751,0.0734937 0.108951,0.120993 0.19001,0.120993 0.0296889,0 0.0584884,-0.00637463 0.0847308,-0.0180399l-0.300429 -0.258438c-0.0708279,0 -0.153938,0 -0.223442,0z"/>
     <path id="_83315320" class="fil2" d="M0.166527 0.558812l0.00348341 -0.00229495c0.0195808,-0.0128333 0.0373769,-0.0277177 0.0532326,-0.0444995l-0.123882 -0.106547c-0.0221831,0.0209476 -0.0515339,0.0344201 -0.0839685,0.0362704l0 0.0832206 0.151135 0.130187 0 -0.0963366z"/>
     <path id="_83316336" class="fil2" d="M0.0153926 0.885932c0.0672543,0.00383584 0.121235,0.057509 0.125624,0.124608l0.00125607 0.00107986c0.0131857,0 0.114422,0 0.223241,0l-0.350121 -0.301167 0 0.17548z"/>
     <path id="_83317224" class="fil2" d="M0.785539 0.33319c0,-0.0104113 0,-0.0689776 0,-0.0948224l-0.127698 -0.109789c-0.00758563,0.0147512 -0.0136037,0.0306273 -0.0176178,0.0473866l-0.0014118 0.00590949 -0.00606317 0c0,0 -0.122558,0 -0.136119,0 0,0.000354488 0,0.000838066 0,0.00132369l0.174508 0.149991c0.0229331,0 0.10289,0 0.114401,0z"/>
     <path id="_83318784" class="fil0" d="M0.761061 0.0324141c-0.0442331,0.0189641 -0.0808601,0.05279 -0.103219,0.0961645l0.127698 0.109789c0,-0.00749547 0,-0.0122595 0,-0.0122595 0,-0.0322809 0.0263059,-0.0585663 0.0585642,-0.0585663 0.0322953,0 0.0586196,0.0262854 0.0586196,0.0585663 0,0 0,0.0936278 0,0.107082 0.0134992,0 0.120532,0 0.120532,0l0 0.133978 0.244101 0 -0.506295 -0.434754z"/>
     <path id="_83319784" class="fil2" d="M1.43225 0.857045l-0.00224987 0.00352644c0,0 -0.0628427,0 -0.14518,0l0.175787 0.151049c0.0489541,0 0.0829112,0 0.0864848,0 0.00194046,-0.0333608 0.0160954,-0.0633734 0.0380572,-0.0857737l-0.123704 -0.106355c-0.0106715,0.0116694 -0.0204189,0.0242138 -0.029195,0.0375532z"/>
    </g>
   </g>
   <g>
    <polygon id="_83321032" class="fil1" points="0.699869,0.380904 0.771556,0.380904 0.771556,0.400596 0.748557,0.400596 0.748557,0.482581 0.722846,0.482581 0.722846,0.400596 0.699869,0.400596 "/>
    <polygon id="_83322216" class="fil1" points="0.763728,0.45773 0.788579,0.45773 0.788579,0.482581 0.763728,0.482581 "/>
    <path id="_83323296" class="fil1" d="M0.872118 0.484146l-0.0107166 0 -0.00498332 -0.00943798c-0.00572303,0.00657134 -0.0145832,0.00985804 -0.0222815,0.00985804 -0.0265702,0 -0.03742,-0.020839 -0.03742,-0.0502532 0,-0.0269902 0.00829255,-0.0554148 0.0395612,-0.0554148 0.0252547,0 0.036545,0.0157245 0.036545,0.0382806l-0.0248387 0c-0.000727417,-0.0120177 -0.00156548,-0.0194272 -0.0111326,-0.0194272 -0.0108723,0 -0.0124399,0.0152799 -0.0124399,0.0341333 0,0.0208185 0.000993795,0.033828 0.012989,0.033828 0.00871056,0 0.0124358,-0.0101429 0.0124358,-0.0165605l-0.0128538 0 0 -0.0171343 0.0351353 0 0 0.0521281z"/>
    <polygon id="_83324696" class="fil1" points="0.883941,0.45773 0.90881,0.45773 0.90881,0.482581 0.883941,0.482581 "/>
    <polygon id="_83325432" class="fil1" points="0.922527,0.380904 0.948193,0.380904 0.948193,0.482581 0.922527,0.482581 "/>
    <polygon id="_83326440" class="fil1" points="0.961908,0.45773 0.986783,0.45773 0.986783,0.482581 0.961908,0.482581 "/>
   </g>
   <g>
    <polygon id="_83327488" class="fil1" points="0.266573,0.546882 0.415767,0.546882 0.415767,0.594884 0.329176,0.594884 0.329176,0.644961 0.39074,0.644961 0.39074,0.692966 0.329176,0.692966 0.329176,0.794532 0.266573,0.794532 "/>
    <path id="_83328408" class="fil1" d="M0.496451 0.592812l0.0104543 0c0.020882,0 0.0407046,0.0020716 0.0407046,0.0278058 0,0.0198247 -0.0153024,0.0271234 -0.0389875,0.0271234l-0.0121714 0 0 -0.0549292zm-0.0626029 0.20172l0 0 0.0626029 0 0 -0.107121 0.020882 0 0.0309818 0.107121 0.061896 0 -0.041389 -0.120354c0.0243224,-0.00904046 0.041389,-0.0309593 0.041389,-0.0570254 0,-0.0487062 -0.0361618,-0.0702705 -0.0831304,-0.0702705l-0.0932323 0 0 0.24765z"/>
    <path id="_83330160" class="fil1" d="M0.631777 0.619936l0.056339 0 0 0.174596 -0.056339 0 0 -0.174596zm0 -0.0730532l0 0 0.056339 0 0 0.0500729 -0.056339 0 0 -0.0500729z"/>
    <path id="_83331280" class="fil1" d="M0.780289 0.590716l0.00522716 0c0.0413665,0 0.0455322,0.0452044 0.0455322,0.0737375 0,0.0326784 0,0.086243 -0.043813,0.086243l-0.00694632 0 0 -0.159981zm-0.0626029 0.203816l0 0 0.0754813 0c0.0758194,0 0.105369,-0.0570459 0.105369,-0.12765 0,-0.0727028 -0.0361659,-0.119999 -0.11302,-0.119999l-0.0678301 0 0 0.24765z"/>
    <path id="_83332576" class="fil1" d="M0.990707 0.599758l0.000704877 0 0.018083 0.100861 -0.0399997 0 0.0212119 -0.100861zm-0.0925254 0.194774l0 0 0.0518187 0 0.0108068 -0.050077 0.0573758 0 0.00974739 0.050077 0.0632853 0 -0.052833 -0.24765 -0.0821182 0 -0.0580827 0.24765z"/>
    <polygon id="_83333760" class="fil1" points="1.13408,0.698191 1.07216,0.546882 1.13756,0.546882 1.17025,0.644278 1.20954,0.546882 1.2652,0.546882 1.19666,0.694708 1.19666,0.794532 1.13408,0.794532 "/>
    <path id="_83334864" class="fil1" d="M1.31111 0.71592c0.00903841,0.0208595 0.0187838,0.0355041 0.0427783,0.0355041 0.014243,0 0.0257526,-0.009063 0.0257526,-0.0209045 0,-0.0504295 -0.109947,-0.0226012 -0.109947,-0.11826 0,-0.0372192 0.0372233,-0.0702521 0.0800015,-0.0702521 0.041764,0 0.0730757,0.023638 0.0838394,0.0545952l-0.0497471 0.0208595c-0.00661642,-0.0145955 -0.0159642,-0.0274513 -0.0340923,-0.0274513 -0.0107596,0 -0.0215643,0.00659183 -0.0215643,0.020882 0,0.0351066 0.112016,0.0271193 0.112016,0.104674 0,0.0508065 -0.0417189,0.0838353 -0.0904517,0.0838353 -0.0420734,0 -0.0758091,-0.0222692 -0.0904087,-0.0626234l0.0518228 -0.0208595z"/>
    <polygon id="_83336784" class="fil1" points="1.28098,0.504829 1.30471,0.504829 1.30471,0.525515 1.29109,0.550431 1.27869,0.550431 1.28945,0.528535 1.28098,0.528535 "/>
   </g>
   <path id="_83337464" class="fil1" d="M1.61271 0.970253c0,0.00324367 0.0025142,0.00450179 0.00538289,0.00450179 0.00189538,0 0.00476202,-0.000553247 0.00476202,-0.00304286 0,-0.0026269 -0.00365962,-0.00306745 -0.00723524,-0.0040387 -0.00361455,-0.000924127 -0.00727417,-0.00235642 -0.00727417,-0.00692378 0,-0.00500381 0.00471694,-0.00738482 0.00913062,-0.00738482 0.00506938,0 0.00974124,0.00222528 0.00974124,0.00784791l-0.00515544 0c-0.000221299,-0.00290967 -0.0022929,-0.00368216 -0.00485013,-0.00368216 -0.00168023,0 -0.00366372,0.000729466 -0.00366372,0.00277853 0,0.00189538 0.00114543,0.00211463 0.00727827,0.00370675 0.00176424,0.000440548 0.00723319,0.0015204 0.00723319,0.00709795 0,0.0044772 -0.00353053,0.00780693 -0.0101429,0.00780693 -0.00542592,0 -0.0104523,-0.00264534 -0.0104092,-0.00866753l0.00520257 0z"/>
   <polygon id="_83339592" class="fil1" points="1.63124,0.953939 1.63878,0.953939 1.64451,0.970716 1.64455,0.970716 1.64998,0.953939 1.65753,0.953939 1.65753,0.978347 1.65249,0.978347 1.65249,0.961037 1.65245,0.961037 1.64645,0.978347 1.64231,0.978347 1.63636,0.961213 1.63627,0.961213 1.63627,0.978347 1.63124,0.978347 "/>
  </g>
 </g>
</svg>
